<mxfile host="Electron" agent="Mozilla/5.0 (X11; Linux x86_64) AppleWebKit/537.36 (KHTML, like Gecko) draw.io/26.0.4 Chrome/128.0.6613.186 Electron/32.2.5 Safari/537.36" version="26.0.4">
  <diagram name="Страница — 1" id="6SzWJXjd3jO-udMxWJHo">
    <mxGraphModel dx="2849" dy="3019" grid="1" gridSize="10" guides="1" tooltips="1" connect="1" arrows="1" fold="1" page="1" pageScale="1" pageWidth="827" pageHeight="1169" math="0" shadow="0">
      <root>
        <mxCell id="0" />
        <mxCell id="1" parent="0" />
        <mxCell id="1dS-JzcZMbIJ_fLOvFZu-3" style="edgeStyle=orthogonalEdgeStyle;rounded=0;orthogonalLoop=1;jettySize=auto;html=1;exitX=0;exitY=0.25;exitDx=0;exitDy=0;entryX=1;entryY=0.5;entryDx=0;entryDy=0;" parent="1" source="iLB-YY_pKdu1ddznSQij-1" target="iLB-YY_pKdu1ddznSQij-3" edge="1">
          <mxGeometry relative="1" as="geometry" />
        </mxCell>
        <mxCell id="iLB-YY_pKdu1ddznSQij-1" value="&lt;div style=&quot;box-sizing: border-box; width: 100%; background: rgb(228, 228, 228); padding: 2px;&quot;&gt;pupils&lt;/div&gt;&lt;table style=&quot;width:100%;font-size:1em;&quot; cellpadding=&quot;2&quot; cellspacing=&quot;0&quot;&gt;&lt;tbody&gt;&lt;tr&gt;&lt;td&gt;PK, FK1&lt;/td&gt;&lt;td&gt;id&lt;/td&gt;&lt;/tr&gt;&lt;tr&gt;&lt;td&gt;&lt;br&gt;&lt;/td&gt;&lt;td&gt;first_name&lt;/td&gt;&lt;/tr&gt;&lt;tr&gt;&lt;td&gt;&lt;/td&gt;&lt;td&gt;second_name&lt;/td&gt;&lt;/tr&gt;&lt;tr&gt;&lt;td&gt;&lt;br&gt;&lt;/td&gt;&lt;td&gt;last_name&lt;br&gt;&lt;/td&gt;&lt;/tr&gt;&lt;tr&gt;&lt;td&gt;&lt;br&gt;&lt;/td&gt;&lt;td&gt;birth_date&lt;/td&gt;&lt;/tr&gt;&lt;tr&gt;&lt;td&gt;&lt;br&gt;&lt;/td&gt;&lt;td&gt;social_ensurance_id&lt;/td&gt;&lt;/tr&gt;&lt;/tbody&gt;&lt;/table&gt;" style="verticalAlign=top;align=left;overflow=fill;html=1;whiteSpace=wrap;" parent="1" vertex="1">
          <mxGeometry x="-260" y="-730" width="180" height="150" as="geometry" />
        </mxCell>
        <mxCell id="1dS-JzcZMbIJ_fLOvFZu-2" style="edgeStyle=orthogonalEdgeStyle;rounded=0;orthogonalLoop=1;jettySize=auto;html=1;exitX=0;exitY=0.25;exitDx=0;exitDy=0;entryX=-0.003;entryY=0.354;entryDx=0;entryDy=0;entryPerimeter=0;" parent="1" source="iLB-YY_pKdu1ddznSQij-2" target="iLB-YY_pKdu1ddznSQij-3" edge="1">
          <mxGeometry relative="1" as="geometry" />
        </mxCell>
        <mxCell id="GWcOqIpFdrr7NjzQsBRJ-3" style="edgeStyle=orthogonalEdgeStyle;rounded=0;orthogonalLoop=1;jettySize=auto;html=1;exitX=0;exitY=0.25;exitDx=0;exitDy=0;entryX=1;entryY=0.25;entryDx=0;entryDy=0;" parent="1" source="iLB-YY_pKdu1ddznSQij-2" target="GWcOqIpFdrr7NjzQsBRJ-2" edge="1">
          <mxGeometry relative="1" as="geometry" />
        </mxCell>
        <mxCell id="iLB-YY_pKdu1ddznSQij-2" value="&lt;div style=&quot;box-sizing: border-box; width: 100%; background: rgb(228, 228, 228); padding: 2px;&quot;&gt;educational_subjects&lt;/div&gt;&lt;table style=&quot;width:100%;font-size:1em;&quot; cellpadding=&quot;2&quot; cellspacing=&quot;0&quot;&gt;&lt;tbody&gt;&lt;tr&gt;&lt;td&gt;PK, FK1&lt;/td&gt;&lt;td&gt;id&lt;/td&gt;&lt;/tr&gt;&lt;tr&gt;&lt;td&gt;&lt;br&gt;&lt;/td&gt;&lt;td&gt;name&lt;/td&gt;&lt;/tr&gt;&lt;/tbody&gt;&lt;/table&gt;" style="verticalAlign=top;align=left;overflow=fill;html=1;whiteSpace=wrap;" parent="1" vertex="1">
          <mxGeometry x="-615" y="-680" width="130" height="80" as="geometry" />
        </mxCell>
        <mxCell id="iLB-YY_pKdu1ddznSQij-3" value="&lt;div style=&quot;box-sizing: border-box; width: 100%; background: rgb(228, 228, 228); padding: 2px;&quot;&gt;grades&lt;/div&gt;&lt;table style=&quot;width:100%;font-size:1em;&quot; cellpadding=&quot;2&quot; cellspacing=&quot;0&quot;&gt;&lt;tbody&gt;&lt;tr&gt;&lt;td&gt;PK&lt;/td&gt;&lt;td&gt;id&lt;/td&gt;&lt;/tr&gt;&lt;tr&gt;&lt;td&gt;FK1&lt;/td&gt;&lt;td&gt;educational_subject_id&lt;/td&gt;&lt;/tr&gt;&lt;tr&gt;&lt;td&gt;FK2&lt;/td&gt;&lt;td&gt;pupil_id&lt;/td&gt;&lt;/tr&gt;&lt;tr&gt;&lt;td&gt;&lt;br&gt;&lt;/td&gt;&lt;td&gt;value&lt;/td&gt;&lt;/tr&gt;&lt;tr&gt;&lt;td&gt;&lt;br&gt;&lt;/td&gt;&lt;td&gt;created_at&lt;/td&gt;&lt;/tr&gt;&lt;/tbody&gt;&lt;/table&gt;" style="verticalAlign=top;align=left;overflow=fill;html=1;whiteSpace=wrap;" parent="1" vertex="1">
          <mxGeometry x="-555" y="-530" width="220" height="130" as="geometry" />
        </mxCell>
        <mxCell id="GWcOqIpFdrr7NjzQsBRJ-4" style="edgeStyle=orthogonalEdgeStyle;rounded=0;orthogonalLoop=1;jettySize=auto;html=1;exitX=0;exitY=0.25;exitDx=0;exitDy=0;entryX=0.004;entryY=0.463;entryDx=0;entryDy=0;entryPerimeter=0;" parent="1" source="iLB-YY_pKdu1ddznSQij-4" target="GWcOqIpFdrr7NjzQsBRJ-2" edge="1">
          <mxGeometry relative="1" as="geometry">
            <Array as="points">
              <mxPoint x="-20" y="-647" />
              <mxPoint x="-20" y="-760" />
              <mxPoint x="-370" y="-760" />
              <mxPoint x="-370" y="-740" />
              <mxPoint x="-1000" y="-740" />
              <mxPoint x="-1000" y="-650" />
            </Array>
          </mxGeometry>
        </mxCell>
        <mxCell id="iLB-YY_pKdu1ddznSQij-4" value="&lt;div style=&quot;box-sizing: border-box; width: 100%; background: rgb(228, 228, 228); padding: 2px;&quot;&gt;educational_groups&lt;/div&gt;&lt;table style=&quot;width:100%;font-size:1em;&quot; cellpadding=&quot;2&quot; cellspacing=&quot;0&quot;&gt;&lt;tbody&gt;&lt;tr&gt;&lt;td&gt;PK, FK1&lt;/td&gt;&lt;td&gt;id&lt;/td&gt;&lt;/tr&gt;&lt;tr&gt;&lt;td&gt;&lt;br&gt;&lt;/td&gt;&lt;td&gt;name&lt;/td&gt;&lt;/tr&gt;&lt;tr&gt;&lt;td&gt;&lt;/td&gt;&lt;td&gt;&lt;br&gt;&lt;/td&gt;&lt;/tr&gt;&lt;/tbody&gt;&lt;/table&gt;" style="verticalAlign=top;align=left;overflow=fill;html=1;whiteSpace=wrap;" parent="1" vertex="1">
          <mxGeometry y="-670" width="120" height="90" as="geometry" />
        </mxCell>
        <mxCell id="iLB-YY_pKdu1ddznSQij-5" value="&lt;div style=&quot;box-sizing: border-box; width: 100%; background: rgb(228, 228, 228); padding: 2px;&quot;&gt;pupils_groups&lt;/div&gt;&lt;table style=&quot;width:100%;font-size:1em;&quot; cellpadding=&quot;2&quot; cellspacing=&quot;0&quot;&gt;&lt;tbody&gt;&lt;tr&gt;&lt;td&gt;PK&lt;/td&gt;&lt;td&gt;id&lt;/td&gt;&lt;/tr&gt;&lt;tr&gt;&lt;td&gt;FK1&lt;/td&gt;&lt;td&gt;pupil_id&lt;/td&gt;&lt;/tr&gt;&lt;tr&gt;&lt;td&gt;FK2&lt;/td&gt;&lt;td&gt;group_id&lt;/td&gt;&lt;/tr&gt;&lt;/tbody&gt;&lt;/table&gt;" style="verticalAlign=top;align=left;overflow=fill;html=1;whiteSpace=wrap;" parent="1" vertex="1">
          <mxGeometry x="-150" y="-480" width="120" height="90" as="geometry" />
        </mxCell>
        <mxCell id="iLB-YY_pKdu1ddznSQij-7" value="" style="endArrow=block;endFill=1;html=1;edgeStyle=orthogonalEdgeStyle;align=left;verticalAlign=top;rounded=0;exitX=0.995;exitY=0.166;exitDx=0;exitDy=0;entryX=0;entryY=0.5;entryDx=0;entryDy=0;exitPerimeter=0;" parent="1" source="iLB-YY_pKdu1ddznSQij-1" target="iLB-YY_pKdu1ddznSQij-5" edge="1">
          <mxGeometry x="-1" relative="1" as="geometry">
            <mxPoint x="-360" y="-390" as="sourcePoint" />
            <mxPoint x="-200" y="-390" as="targetPoint" />
          </mxGeometry>
        </mxCell>
        <mxCell id="iLB-YY_pKdu1ddznSQij-8" value="1" style="edgeLabel;resizable=0;html=1;align=left;verticalAlign=bottom;" parent="iLB-YY_pKdu1ddznSQij-7" connectable="0" vertex="1">
          <mxGeometry x="-1" relative="1" as="geometry">
            <mxPoint x="10" y="48" as="offset" />
          </mxGeometry>
        </mxCell>
        <mxCell id="iLB-YY_pKdu1ddznSQij-9" value="" style="endArrow=block;endFill=1;html=1;edgeStyle=orthogonalEdgeStyle;align=left;verticalAlign=top;rounded=0;exitX=0;exitY=0.25;exitDx=0;exitDy=0;entryX=1;entryY=0.75;entryDx=0;entryDy=0;" parent="1" source="iLB-YY_pKdu1ddznSQij-4" target="iLB-YY_pKdu1ddznSQij-5" edge="1">
          <mxGeometry x="-1" relative="1" as="geometry">
            <mxPoint x="110" y="-500" as="sourcePoint" />
            <mxPoint x="270" y="-500" as="targetPoint" />
          </mxGeometry>
        </mxCell>
        <mxCell id="iLB-YY_pKdu1ddznSQij-10" value="2" style="edgeLabel;resizable=0;html=1;align=left;verticalAlign=bottom;" parent="iLB-YY_pKdu1ddznSQij-9" connectable="0" vertex="1">
          <mxGeometry x="-1" relative="1" as="geometry">
            <mxPoint x="-20" y="48" as="offset" />
          </mxGeometry>
        </mxCell>
        <mxCell id="iLB-YY_pKdu1ddznSQij-17" value="Tables" style="text;align=center;fontStyle=1;verticalAlign=middle;spacingLeft=3;spacingRight=3;strokeColor=none;rotatable=0;points=[[0,0.5],[1,0.5]];portConstraint=eastwest;html=1;" parent="1" vertex="1">
          <mxGeometry x="-485" y="-770" width="80" height="26" as="geometry" />
        </mxCell>
        <mxCell id="iLB-YY_pKdu1ddznSQij-18" value="Endpoints" style="text;align=center;fontStyle=1;verticalAlign=middle;spacingLeft=3;spacingRight=3;strokeColor=none;rotatable=0;points=[[0,0.5],[1,0.5]];portConstraint=eastwest;html=1;" parent="1" vertex="1">
          <mxGeometry x="-510" y="-290" width="80" height="26" as="geometry" />
        </mxCell>
        <mxCell id="iLB-YY_pKdu1ddznSQij-19" value="&lt;div style=&quot;box-sizing: border-box; width: 100%; background: rgb(228, 228, 228); padding: 2px;&quot;&gt;pupils_search&lt;/div&gt;&lt;table style=&quot;width:100%;font-size:1em;&quot; cellpadding=&quot;2&quot; cellspacing=&quot;0&quot;&gt;&lt;tbody&gt;&lt;tr&gt;&lt;td&gt;group_name&lt;/td&gt;&lt;td&gt;Educational group&#39;s name.&lt;/td&gt;&lt;td&gt;optional&lt;/td&gt;&lt;/tr&gt;&lt;tr&gt;&lt;td&gt;first_name&lt;/td&gt;&lt;td&gt;Pupil&#39;s name.&lt;/td&gt;&lt;td&gt;optional&lt;/td&gt;&lt;/tr&gt;&lt;tr&gt;&lt;td&gt;last_name&lt;/td&gt;&lt;td&gt;Pupil&#39;s last name.&lt;br&gt;&lt;/td&gt;&lt;td&gt;optional&lt;br&gt;&lt;/td&gt;&lt;/tr&gt;&lt;tr&gt;&lt;td&gt;second_name&lt;/td&gt;&lt;td&gt;Pupil&#39;s second name.&lt;/td&gt;&lt;td&gt;optional&lt;br&gt;&lt;/td&gt;&lt;/tr&gt;&lt;/tbody&gt;&lt;/table&gt;" style="verticalAlign=top;align=left;overflow=fill;html=1;whiteSpace=wrap;" parent="1" vertex="1">
          <mxGeometry x="-1540" y="-460" width="320" height="90" as="geometry" />
        </mxCell>
        <mxCell id="iLB-YY_pKdu1ddznSQij-20" value="&lt;div style=&quot;box-sizing: border-box; width: 100%; background: rgb(228, 228, 228); padding: 2px;&quot;&gt;subjects&lt;/div&gt;&lt;table style=&quot;width:100%;font-size:1em;&quot; cellpadding=&quot;2&quot; cellspacing=&quot;0&quot;&gt;&lt;tbody&gt;&lt;tr&gt;&lt;td&gt;subject_name&lt;/td&gt;&lt;td&gt;Educational subject&#39;s name.&lt;/td&gt;&lt;td&gt;optional&lt;/td&gt;&lt;/tr&gt;&lt;/tbody&gt;&lt;/table&gt;" style="verticalAlign=top;align=left;overflow=fill;html=1;whiteSpace=wrap;" parent="1" vertex="1">
          <mxGeometry x="-380" y="-220" width="320" height="50" as="geometry" />
        </mxCell>
        <mxCell id="iLB-YY_pKdu1ddznSQij-22" value="&lt;div style=&quot;box-sizing: border-box; width: 100%; background: rgb(228, 228, 228); padding: 2px;&quot;&gt;grade: GET&lt;/div&gt;&lt;table style=&quot;width:100%;font-size:1em;&quot; cellpadding=&quot;2&quot; cellspacing=&quot;0&quot;&gt;&lt;tbody&gt;&lt;tr&gt;&lt;td&gt;subject_id&lt;/td&gt;&lt;td&gt;Educational subject&#39;s external ID.&lt;/td&gt;&lt;td&gt;required&lt;/td&gt;&lt;/tr&gt;&lt;tr&gt;&lt;td&gt;pupil_id&lt;/td&gt;&lt;td&gt;Pupil&#39;s external ID.&lt;/td&gt;&lt;td&gt;required&lt;/td&gt;&lt;/tr&gt;&lt;/tbody&gt;&lt;/table&gt;" style="verticalAlign=top;align=left;overflow=fill;html=1;whiteSpace=wrap;" parent="1" vertex="1">
          <mxGeometry x="-760" y="-90" width="320" height="60" as="geometry" />
        </mxCell>
        <mxCell id="4ZjUNHibEDuSv79mXHUm-5" style="edgeStyle=orthogonalEdgeStyle;rounded=0;orthogonalLoop=1;jettySize=auto;html=1;exitX=0.866;exitY=1;exitDx=0;exitDy=0;entryX=0.5;entryY=0;entryDx=0;entryDy=0;exitPerimeter=0;" parent="1" source="4ZjUNHibEDuSv79mXHUm-9" target="4ZjUNHibEDuSv79mXHUm-4" edge="1">
          <mxGeometry relative="1" as="geometry" />
        </mxCell>
        <mxCell id="4ZjUNHibEDuSv79mXHUm-6" value="проставление оценок" style="edgeLabel;html=1;align=center;verticalAlign=middle;resizable=0;points=[];" parent="4ZjUNHibEDuSv79mXHUm-5" vertex="1" connectable="0">
          <mxGeometry x="-0.2069" y="2" relative="1" as="geometry">
            <mxPoint as="offset" />
          </mxGeometry>
        </mxCell>
        <mxCell id="4ZjUNHibEDuSv79mXHUm-7" style="edgeStyle=orthogonalEdgeStyle;rounded=0;orthogonalLoop=1;jettySize=auto;html=1;exitX=1;exitY=0.5;exitDx=0;exitDy=0;entryX=0;entryY=0.5;entryDx=0;entryDy=0;" parent="1" source="4ZjUNHibEDuSv79mXHUm-2" target="4ZjUNHibEDuSv79mXHUm-3" edge="1">
          <mxGeometry relative="1" as="geometry" />
        </mxCell>
        <mxCell id="4ZjUNHibEDuSv79mXHUm-8" value="учится в классе" style="edgeLabel;html=1;align=center;verticalAlign=middle;resizable=0;points=[];" parent="4ZjUNHibEDuSv79mXHUm-7" vertex="1" connectable="0">
          <mxGeometry x="-0.2752" y="1" relative="1" as="geometry">
            <mxPoint x="15" y="1" as="offset" />
          </mxGeometry>
        </mxCell>
        <mxCell id="4ZjUNHibEDuSv79mXHUm-12" style="edgeStyle=orthogonalEdgeStyle;rounded=0;orthogonalLoop=1;jettySize=auto;html=1;exitX=0.75;exitY=1;exitDx=0;exitDy=0;entryX=0.25;entryY=0;entryDx=0;entryDy=0;" parent="1" source="4ZjUNHibEDuSv79mXHUm-2" target="4ZjUNHibEDuSv79mXHUm-11" edge="1">
          <mxGeometry relative="1" as="geometry" />
        </mxCell>
        <mxCell id="4ZjUNHibEDuSv79mXHUm-13" value="учит предмет" style="edgeLabel;html=1;align=center;verticalAlign=middle;resizable=0;points=[];" parent="4ZjUNHibEDuSv79mXHUm-12" vertex="1" connectable="0">
          <mxGeometry x="-0.2978" y="-3" relative="1" as="geometry">
            <mxPoint as="offset" />
          </mxGeometry>
        </mxCell>
        <mxCell id="4ZjUNHibEDuSv79mXHUm-14" style="edgeStyle=orthogonalEdgeStyle;rounded=0;orthogonalLoop=1;jettySize=auto;html=1;exitX=0.25;exitY=1;exitDx=0;exitDy=0;entryX=1;entryY=0.5;entryDx=0;entryDy=0;" parent="1" source="4ZjUNHibEDuSv79mXHUm-2" target="4ZjUNHibEDuSv79mXHUm-4" edge="1">
          <mxGeometry relative="1" as="geometry" />
        </mxCell>
        <mxCell id="4ZjUNHibEDuSv79mXHUm-15" value="получает оценку&lt;div&gt;по предмету&lt;/div&gt;" style="edgeLabel;html=1;align=center;verticalAlign=middle;resizable=0;points=[];" parent="4ZjUNHibEDuSv79mXHUm-14" vertex="1" connectable="0">
          <mxGeometry x="-0.2669" y="2" relative="1" as="geometry">
            <mxPoint as="offset" />
          </mxGeometry>
        </mxCell>
        <mxCell id="4ZjUNHibEDuSv79mXHUm-2" value="Ученик" style="rounded=0;whiteSpace=wrap;html=1;fillColor=#d5e8d4;strokeColor=#82b366;" parent="1" vertex="1">
          <mxGeometry x="-660" y="-1150" width="120" height="60" as="geometry" />
        </mxCell>
        <mxCell id="4ZjUNHibEDuSv79mXHUm-16" style="edgeStyle=orthogonalEdgeStyle;rounded=0;orthogonalLoop=1;jettySize=auto;html=1;exitX=0.25;exitY=1;exitDx=0;exitDy=0;entryX=0.75;entryY=0;entryDx=0;entryDy=0;" parent="1" source="4ZjUNHibEDuSv79mXHUm-3" target="4ZjUNHibEDuSv79mXHUm-11" edge="1">
          <mxGeometry relative="1" as="geometry" />
        </mxCell>
        <mxCell id="4ZjUNHibEDuSv79mXHUm-17" value="изучает несколько предметов" style="edgeLabel;html=1;align=center;verticalAlign=middle;resizable=0;points=[];" parent="4ZjUNHibEDuSv79mXHUm-16" vertex="1" connectable="0">
          <mxGeometry x="-0.2399" relative="1" as="geometry">
            <mxPoint as="offset" />
          </mxGeometry>
        </mxCell>
        <mxCell id="4ZjUNHibEDuSv79mXHUm-3" value="Класс" style="rounded=0;whiteSpace=wrap;html=1;fillColor=#d5e8d4;strokeColor=#82b366;" parent="1" vertex="1">
          <mxGeometry x="-360" y="-1150" width="120" height="60" as="geometry" />
        </mxCell>
        <mxCell id="4ZjUNHibEDuSv79mXHUm-4" value="Оценка" style="rounded=0;whiteSpace=wrap;html=1;fillColor=#d5e8d4;strokeColor=#82b366;" parent="1" vertex="1">
          <mxGeometry x="-830" y="-930" width="120" height="60" as="geometry" />
        </mxCell>
        <mxCell id="4ZjUNHibEDuSv79mXHUm-19" style="edgeStyle=orthogonalEdgeStyle;rounded=0;orthogonalLoop=1;jettySize=auto;html=1;exitX=0.5;exitY=0;exitDx=0;exitDy=0;entryX=0.25;entryY=0;entryDx=0;entryDy=0;" parent="1" source="4ZjUNHibEDuSv79mXHUm-9" target="4ZjUNHibEDuSv79mXHUm-3" edge="1">
          <mxGeometry relative="1" as="geometry">
            <Array as="points">
              <mxPoint x="-820" y="-1230" />
              <mxPoint x="-330" y="-1230" />
            </Array>
          </mxGeometry>
        </mxCell>
        <mxCell id="4ZjUNHibEDuSv79mXHUm-20" value="преподаёт в классе (предмет)" style="edgeLabel;html=1;align=center;verticalAlign=middle;resizable=0;points=[];" parent="4ZjUNHibEDuSv79mXHUm-19" vertex="1" connectable="0">
          <mxGeometry x="0.058" y="1" relative="1" as="geometry">
            <mxPoint as="offset" />
          </mxGeometry>
        </mxCell>
        <mxCell id="4ZjUNHibEDuSv79mXHUm-21" style="edgeStyle=orthogonalEdgeStyle;rounded=0;orthogonalLoop=1;jettySize=auto;html=1;exitX=0.75;exitY=0;exitDx=0;exitDy=0;entryX=0.5;entryY=0;entryDx=0;entryDy=0;" parent="1" source="4ZjUNHibEDuSv79mXHUm-9" target="4ZjUNHibEDuSv79mXHUm-2" edge="1">
          <mxGeometry relative="1" as="geometry">
            <Array as="points">
              <mxPoint x="-790" y="-1200" />
              <mxPoint x="-600" y="-1200" />
            </Array>
          </mxGeometry>
        </mxCell>
        <mxCell id="4ZjUNHibEDuSv79mXHUm-22" value="следит за успеваемостью" style="edgeLabel;html=1;align=center;verticalAlign=middle;resizable=0;points=[];" parent="4ZjUNHibEDuSv79mXHUm-21" vertex="1" connectable="0">
          <mxGeometry x="-0.1648" relative="1" as="geometry">
            <mxPoint as="offset" />
          </mxGeometry>
        </mxCell>
        <mxCell id="4ZjUNHibEDuSv79mXHUm-9" value="Учитель начальных классов" style="rounded=0;whiteSpace=wrap;html=1;fillColor=#e1d5e7;strokeColor=#9673a6;" parent="1" vertex="1">
          <mxGeometry x="-880" y="-1150" width="120" height="60" as="geometry" />
        </mxCell>
        <mxCell id="4ZjUNHibEDuSv79mXHUm-11" value="Предмет" style="rounded=0;whiteSpace=wrap;html=1;fillColor=#d5e8d4;strokeColor=#82b366;" parent="1" vertex="1">
          <mxGeometry x="-533" y="-990" width="120" height="60" as="geometry" />
        </mxCell>
        <mxCell id="4ZjUNHibEDuSv79mXHUm-24" style="edgeStyle=orthogonalEdgeStyle;rounded=0;orthogonalLoop=1;jettySize=auto;html=1;exitX=0;exitY=0.5;exitDx=0;exitDy=0;fillColor=#f8cecc;strokeColor=#b85450;" parent="1" source="4ZjUNHibEDuSv79mXHUm-23" target="4ZjUNHibEDuSv79mXHUm-11" edge="1">
          <mxGeometry relative="1" as="geometry" />
        </mxCell>
        <mxCell id="4ZjUNHibEDuSv79mXHUm-25" value="учит предмет&lt;div&gt;&amp;nbsp;в разных классах&lt;/div&gt;" style="edgeLabel;html=1;align=center;verticalAlign=middle;resizable=0;points=[];" parent="4ZjUNHibEDuSv79mXHUm-24" vertex="1" connectable="0">
          <mxGeometry x="0.2426" relative="1" as="geometry">
            <mxPoint as="offset" />
          </mxGeometry>
        </mxCell>
        <mxCell id="4ZjUNHibEDuSv79mXHUm-29" style="edgeStyle=orthogonalEdgeStyle;rounded=0;orthogonalLoop=1;jettySize=auto;html=1;exitX=0.75;exitY=0;exitDx=0;exitDy=0;entryX=0.5;entryY=1;entryDx=0;entryDy=0;fillColor=#f8cecc;strokeColor=#b85450;" parent="1" source="4ZjUNHibEDuSv79mXHUm-23" target="4ZjUNHibEDuSv79mXHUm-27" edge="1">
          <mxGeometry relative="1" as="geometry" />
        </mxCell>
        <mxCell id="4ZjUNHibEDuSv79mXHUm-23" value="Учитель-предметник" style="rounded=0;whiteSpace=wrap;html=1;fillColor=#f8cecc;strokeColor=#b85450;" parent="1" vertex="1">
          <mxGeometry x="-220" y="-980" width="120" height="60" as="geometry" />
        </mxCell>
        <mxCell id="4ZjUNHibEDuSv79mXHUm-28" style="edgeStyle=orthogonalEdgeStyle;rounded=0;orthogonalLoop=1;jettySize=auto;html=1;exitX=0;exitY=0.75;exitDx=0;exitDy=0;entryX=1;entryY=0.5;entryDx=0;entryDy=0;fillColor=#f8cecc;strokeColor=#b85450;" parent="1" source="4ZjUNHibEDuSv79mXHUm-27" target="4ZjUNHibEDuSv79mXHUm-3" edge="1">
          <mxGeometry relative="1" as="geometry" />
        </mxCell>
        <mxCell id="4ZjUNHibEDuSv79mXHUm-27" value="Расписание" style="rounded=0;whiteSpace=wrap;html=1;fillColor=#f8cecc;strokeColor=#b85450;" parent="1" vertex="1">
          <mxGeometry x="-150" y="-1110" width="120" height="60" as="geometry" />
        </mxCell>
        <mxCell id="4ZjUNHibEDuSv79mXHUm-32" style="edgeStyle=orthogonalEdgeStyle;rounded=0;orthogonalLoop=1;jettySize=auto;html=1;exitX=1;exitY=0.5;exitDx=0;exitDy=0;entryX=0;entryY=0.5;entryDx=0;entryDy=0;endArrow=none;endFill=0;" parent="1" source="4ZjUNHibEDuSv79mXHUm-30" target="4ZjUNHibEDuSv79mXHUm-31" edge="1">
          <mxGeometry relative="1" as="geometry" />
        </mxCell>
        <mxCell id="4ZjUNHibEDuSv79mXHUm-33" value="many-to-many" style="edgeLabel;html=1;align=center;verticalAlign=middle;resizable=0;points=[];" parent="4ZjUNHibEDuSv79mXHUm-32" vertex="1" connectable="0">
          <mxGeometry x="-0.1526" relative="1" as="geometry">
            <mxPoint as="offset" />
          </mxGeometry>
        </mxCell>
        <mxCell id="4ZjUNHibEDuSv79mXHUm-30" value="pupils" style="rounded=0;whiteSpace=wrap;html=1;" parent="1" vertex="1">
          <mxGeometry x="-250" y="-860" width="120" height="60" as="geometry" />
        </mxCell>
        <mxCell id="4ZjUNHibEDuSv79mXHUm-31" value="&lt;span style=&quot;text-align: left; background-color: rgb(228, 228, 228);&quot;&gt;educational_groups&lt;/span&gt;" style="rounded=0;whiteSpace=wrap;html=1;" parent="1" vertex="1">
          <mxGeometry x="20" y="-860" width="120" height="60" as="geometry" />
        </mxCell>
        <mxCell id="4ZjUNHibEDuSv79mXHUm-34" value="&lt;span style=&quot;text-align: left; background-color: rgb(228, 228, 228);&quot;&gt;grades&lt;/span&gt;" style="rounded=0;whiteSpace=wrap;html=1;" parent="1" vertex="1">
          <mxGeometry x="-490" y="-860" width="120" height="60" as="geometry" />
        </mxCell>
        <mxCell id="4ZjUNHibEDuSv79mXHUm-35" style="edgeStyle=orthogonalEdgeStyle;rounded=0;orthogonalLoop=1;jettySize=auto;html=1;exitX=1;exitY=0.5;exitDx=0;exitDy=0;entryX=0;entryY=0.5;entryDx=0;entryDy=0;endArrow=none;endFill=0;" parent="1" source="4ZjUNHibEDuSv79mXHUm-34" target="4ZjUNHibEDuSv79mXHUm-30" edge="1">
          <mxGeometry relative="1" as="geometry">
            <mxPoint x="-370" y="-840" as="sourcePoint" />
            <mxPoint x="-220" y="-840" as="targetPoint" />
          </mxGeometry>
        </mxCell>
        <mxCell id="4ZjUNHibEDuSv79mXHUm-36" value="many-to-many" style="edgeLabel;html=1;align=center;verticalAlign=middle;resizable=0;points=[];" parent="4ZjUNHibEDuSv79mXHUm-35" vertex="1" connectable="0">
          <mxGeometry x="-0.1526" relative="1" as="geometry">
            <mxPoint as="offset" />
          </mxGeometry>
        </mxCell>
        <mxCell id="GWcOqIpFdrr7NjzQsBRJ-1" value="&lt;div style=&quot;box-sizing: border-box; width: 100%; background: rgb(228, 228, 228); padding: 2px;&quot;&gt;grade: POST&lt;/div&gt;&lt;table style=&quot;width:100%;font-size:1em;&quot; cellpadding=&quot;2&quot; cellspacing=&quot;0&quot;&gt;&lt;tbody&gt;&lt;tr&gt;&lt;td&gt;subject_id&lt;/td&gt;&lt;td&gt;Educational subject&#39;s external ID.&lt;/td&gt;&lt;td&gt;required&lt;/td&gt;&lt;/tr&gt;&lt;tr&gt;&lt;td&gt;pupil_id&lt;/td&gt;&lt;td&gt;Pupil&#39;s external ID.&lt;/td&gt;&lt;td&gt;required&lt;/td&gt;&lt;/tr&gt;&lt;/tbody&gt;&lt;/table&gt;" style="verticalAlign=top;align=left;overflow=fill;html=1;whiteSpace=wrap;" parent="1" vertex="1">
          <mxGeometry x="-400" y="-90" width="320" height="60" as="geometry" />
        </mxCell>
        <mxCell id="GWcOqIpFdrr7NjzQsBRJ-2" value="&lt;div style=&quot;box-sizing: border-box; width: 100%; background: rgb(228, 228, 228); padding: 2px;&quot;&gt;educational_groups_subjects&lt;/div&gt;&lt;table style=&quot;width:100%;font-size:1em;&quot; cellpadding=&quot;2&quot; cellspacing=&quot;0&quot;&gt;&lt;tbody&gt;&lt;tr&gt;&lt;td&gt;PK&lt;/td&gt;&lt;td&gt;id&lt;/td&gt;&lt;/tr&gt;&lt;tr&gt;&lt;td&gt;FK1&lt;br&gt;&lt;/td&gt;&lt;td&gt;educational_subject_id&lt;br&gt;&lt;/td&gt;&lt;/tr&gt;&lt;tr&gt;&lt;td&gt;FK2&lt;br&gt;&lt;/td&gt;&lt;td&gt;educational_group_id&lt;br&gt;&lt;/td&gt;&lt;/tr&gt;&lt;/tbody&gt;&lt;/table&gt;" style="verticalAlign=top;align=left;overflow=fill;html=1;whiteSpace=wrap;" parent="1" vertex="1">
          <mxGeometry x="-980" y="-710" width="240" height="130" as="geometry" />
        </mxCell>
      </root>
    </mxGraphModel>
  </diagram>
</mxfile>
